# xmcd CD database file
# Copyright (C) 1993-1998 Ti Kan
#
# Track frame offsets:
#	150
#	11155
#	23790
#	34945
#	47880
#	60832
#	71757
#	85395
#	96030
#	107502
#	118997
#	129292
#	141980
#	152252
#	161030
#	174282
#
# Disc length: 2463 seconds
#
# Revision: 1
# Processed by: cddbd v1.4b41PL1 Copyright (c) Steve Scherf et al.
# Submitted via: CDValet v3.31 - Copyright (c) 1997 Greg Leichner
#
DISCID=ce099d10
DTITLE=Patsy Cline - Here's Patsy Cline
DYEAR=1900
DGENRE=
TTITLE0=Stop The World
TTITLE1=Yes' I Understand
TTITLE2=Just Out Of Reach
TTITLE3=Life's Railway To Heaven
TTITLE4=If I Could See The World
TTITLE5=Love Letters In The Sand
TTITLE6=That's My Desire
TTITLE7=Your Cheating Heart
TTITLE8=I've Loved And Lost Again
TTITLE9=In Care Of The Blues
TTITLE10=How Can I Face Tomorrow
TTITLE11=Just A Closer Walk With Thee
TTITLE12=Walking Dream
TTITLE13=You Were Only Fooling
TTITLE14=I Can't Help It
TTITLE15=Lovesick Blues
EXTD=
EXTT0=
EXTT1=
EXTT2=
EXTT3=
EXTT4=
EXTT5=
EXTT6=
EXTT7=
EXTT8=
EXTT9=
EXTT10=
EXTT11=
EXTT12=
EXTT13=
EXTT14=
EXTT15=
PLAYORDER=
